<svg width="39" height="48" viewBox="0 0 39 48" fill="none" xmlns="http://www.w3.org/2000/svg">
<path d="M28.5 40.5C28.5 41.6968 27.4908 43.1842 24.9358 44.4617C22.4705 45.6943 18.9598 46.5 15 46.5C11.0402 46.5 7.52951 45.6943 5.06422 44.4617C2.50921 43.1842 1.5 41.6968 1.5 40.5C1.5 39.3032 2.50921 37.8158 5.06422 36.5383C7.52951 35.3057 11.0402 34.5 15 34.5C18.9598 34.5 22.4705 35.3057 24.9358 36.5383C27.4908 37.8158 28.5 39.3032 28.5 40.5Z" stroke="#152C5B" stroke-width="3"/>
<path d="M26.5 11.7684C26.5 14.7867 25.0992 22.4193 22.7706 29.3434C21.6111 32.7914 20.257 35.9532 18.7983 38.2231C18.0686 39.3585 17.3519 40.2086 16.6729 40.7613C15.9979 41.3109 15.4459 41.5 15 41.5C14.5541 41.5 14.0021 41.3109 13.3271 40.7613C12.6481 40.2086 11.9314 39.3585 11.2017 38.2231C9.74299 35.9532 8.3889 32.7914 7.22937 29.3434C4.90082 22.4193 3.5 14.7867 3.5 11.7684C3.5 6.2343 8.50477 1.5 15 1.5C21.4952 1.5 26.5 6.2343 26.5 11.7684Z" fill="white" stroke="#152C5B" stroke-width="3"/>
<circle cx="15" cy="14" r="4.5" stroke="#FF498B" stroke-width="3"/>
</svg>
