<svg width="47" height="48" viewBox="0 0 47 48" fill="none" xmlns="http://www.w3.org/2000/svg">
<mask id="path-1-inside-1" fill="white">
<path fill-rule="evenodd" clip-rule="evenodd" d="M17.2834 6C16.4061 6 15.6312 6.57175 15.3724 7.41001L14.0769 11.6061H7C2.58172 11.6061 -1 15.1878 -1 19.6061V35C-1 39.4183 2.58172 43 7 43H39C43.4183 43 47 39.4183 47 35V19.6061C47 15.1878 43.4183 11.6061 39 11.6061H31.9231L30.6276 7.41001C30.3688 6.57175 29.5939 6 28.7166 6H17.2834Z"/>
</mask>
<path d="M15.3724 7.41001L18.2389 8.29499V8.29499L15.3724 7.41001ZM14.0769 11.6061V14.6061H16.2904L16.9434 12.491L14.0769 11.6061ZM31.9231 11.6061L29.0566 12.491L29.7096 14.6061H31.9231V11.6061ZM30.6276 7.41001L33.4941 6.52504V6.52503L30.6276 7.41001ZM18.2389 8.29499C18.1095 8.71413 17.722 9 17.2834 9V3C15.0901 3 13.1529 4.42936 12.5059 6.52504L18.2389 8.29499ZM16.9434 12.491L18.2389 8.29499L12.5059 6.52503L11.2104 10.7211L16.9434 12.491ZM7 14.6061H14.0769V8.60606H7V14.6061ZM2 19.6061C2 16.8446 4.23858 14.6061 7 14.6061V8.60606C0.924865 8.60606 -4 13.5309 -4 19.6061H2ZM2 35V19.6061H-4V35H2ZM7 40C4.23858 40 2 37.7614 2 35H-4C-4 41.0751 0.924869 46 7 46V40ZM39 40H7V46H39V40ZM44 35C44 37.7614 41.7614 40 39 40V46C45.0751 46 50 41.0751 50 35H44ZM44 19.6061V35H50V19.6061H44ZM39 14.6061C41.7614 14.6061 44 16.8446 44 19.6061H50C50 13.5309 45.0751 8.60606 39 8.60606V14.6061ZM31.9231 14.6061H39V8.60606H31.9231V14.6061ZM27.7611 8.29499L29.0566 12.491L34.7896 10.7211L33.4941 6.52504L27.7611 8.29499ZM28.7166 9C28.278 9 27.8905 8.71413 27.7611 8.295L33.4941 6.52503C32.8471 4.42937 30.9099 3 28.7166 3V9ZM17.2834 9H28.7166V3H17.2834V9Z" fill="#152C5B" mask="url(#path-1-inside-1)"/>
<circle cx="23" cy="28" r="6.5" stroke="#FF498B" stroke-width="3"/>
<path d="M40 19L32 19" stroke="#152C5B" stroke-width="3" stroke-linecap="round" stroke-linejoin="bevel"/>
</svg>
