<svg width="25" height="24" viewBox="0 0 25 24" fill="none" xmlns="http://www.w3.org/2000/svg">
<path d="M22 3H3C1.89543 3 1 3.89543 1 5V21C1 22.1046 1.89543 23 3 23H22C23.1046 23 24 22.1046 24 21V5C24 3.89543 23.1046 3 22 3Z" stroke="white" stroke-width="2"/>
<mask id="mask0" style="mask-type:alpha" maskUnits="userSpaceOnUse" x="4" y="12" width="7" height="7">
<path d="M10 12H5C4.44772 12 4 12.4477 4 13V18C4 18.5523 4.44772 19 5 19H10C10.5523 19 11 18.5523 11 18V13C11 12.4477 10.5523 12 10 12Z" fill="white"/>
</mask>
<g mask="url(#mask0)">
<path d="M10 12H5C4.44772 12 4 12.4477 4 13V18C4 18.5523 4.44772 19 5 19H10C10.5523 19 11 18.5523 11 18V13C11 12.4477 10.5523 12 10 12Z" stroke="white" stroke-width="4"/>
</g>
<mask id="mask1" style="mask-type:alpha" maskUnits="userSpaceOnUse" x="14" y="12" width="7" height="7">
<path d="M20 12H15C14.4477 12 14 12.4477 14 13V18C14 18.5523 14.4477 19 15 19H20C20.5523 19 21 18.5523 21 18V13C21 12.4477 20.5523 12 20 12Z" fill="white"/>
</mask>
<g mask="url(#mask1)">
<path d="M20 12H15C14.4477 12 14 12.4477 14 13V18C14 18.5523 14.4477 19 15 19H20C20.5523 19 21 18.5523 21 18V13C21 12.4477 20.5523 12 20 12Z" stroke="white" stroke-width="4"/>
</g>
<path d="M5 5V1" stroke="white" stroke-width="2" stroke-linecap="round"/>
<path d="M20 4.5V1" stroke="white" stroke-width="2" stroke-linecap="round"/>
<path d="M0 8H24" stroke="white" stroke-width="2"/>
</svg>
