<svg width="48" height="48" viewBox="0 0 48 48" fill="none" xmlns="http://www.w3.org/2000/svg">
<path d="M10.5 15C10.5 14.7239 10.7239 14.5 11 14.5H21C21.2761 14.5 21.5 14.7239 21.5 15V21C21.5 21.2761 21.2761 21.5 21 21.5H11C10.7239 21.5 10.5 21.2761 10.5 21V15Z" stroke="#FF498B" stroke-width="3"/>
<path d="M26.5 15C26.5 14.7239 26.7239 14.5 27 14.5H37C37.2761 14.5 37.5 14.7239 37.5 15V21C37.5 21.2761 37.2761 21.5 37 21.5H27C26.7239 21.5 26.5 21.2761 26.5 21V15Z" stroke="#FF498B" stroke-width="3"/>
<path d="M5.5 8C5.5 4.41015 8.41015 1.5 12 1.5H36C39.5899 1.5 42.5 4.41015 42.5 8V23.5H5.5V8Z" stroke="#152C5B" stroke-width="3"/>
<mask id="path-4-inside-1" fill="white">
<path d="M0 26C0 23.7909 1.79086 22 4 22H44C46.2091 22 48 23.7909 48 26V35C48 36.1046 47.1046 37 46 37H2C0.895431 37 0 36.1046 0 35V26Z"/>
</mask>
<path d="M0 26C0 23.7909 1.79086 22 4 22H44C46.2091 22 48 23.7909 48 26V35C48 36.1046 47.1046 37 46 37H2C0.895431 37 0 36.1046 0 35V26Z" stroke="#152C5B" stroke-width="6" mask="url(#path-4-inside-1)"/>
<path d="M3.69165 36.9626L2.17305 44.8171" stroke="#152C5B" stroke-width="3" stroke-linecap="round" stroke-linejoin="bevel"/>
<path d="M44 36.9626L45.5186 44.8171" stroke="#152C5B" stroke-width="3" stroke-linecap="round" stroke-linejoin="bevel"/>
<path d="M44 41.5H3.5" stroke="#152C5B" stroke-width="3" stroke-linecap="round" stroke-linejoin="bevel"/>
</svg>
