<svg width="48" height="48" viewBox="0 0 48 48" fill="none" xmlns="http://www.w3.org/2000/svg">
<path d="M5.5 9.42857C5.5 13.334 8.66599 16.5 12.5714 16.5H14.4286C18.334 16.5 21.5 13.334 21.5 9.42857C21.5 8.36345 20.6365 7.5 19.5714 7.5H7.42857C6.36345 7.5 5.5 8.36345 5.5 9.42857Z" stroke="#FF498B" stroke-width="3"/>
<path d="M27.5 11C27.5 14.0376 29.9624 16.5 33 16.5C36.0376 16.5 38.5 14.0376 38.5 11V4C38.5 2.61929 37.3807 1.5 36 1.5H30C28.6193 1.5 27.5 2.61929 27.5 4V11Z" stroke="#FF498B" stroke-width="3"/>
<path d="M41 12.5C42.933 12.5 44.5 10.933 44.5 9C44.5 7.067 42.933 5.5 41 5.5L38.8 5.5C38.6343 5.5 38.5 5.63432 38.5 5.8L38.5 12.2C38.5 12.3657 38.6343 12.5 38.8 12.5L41 12.5Z" stroke="#FF498B" stroke-width="3"/>
<path d="M1.5 21C1.5 19.6193 2.61929 18.5 4 18.5H44C45.3807 18.5 46.5 19.6193 46.5 21V27C46.5 28.3807 45.3807 29.5 44 29.5H4C2.61929 29.5 1.5 28.3807 1.5 27V21Z" stroke="#152C5B" stroke-width="3"/>
<path d="M7 30L5 46" stroke="#152C5B" stroke-width="3" stroke-linecap="round" stroke-linejoin="bevel"/>
<path d="M42 30L44 46" stroke="#152C5B" stroke-width="3" stroke-linecap="round" stroke-linejoin="bevel"/>
<path d="M43 40H6" stroke="#152C5B" stroke-width="3" stroke-linecap="round" stroke-linejoin="bevel"/>
</svg>
